<svg xmlns="http://www.w3.org/2000/svg" width="800" height="400" viewBox="0 0 800 400"><g stroke="black" fill="none" stroke-width="1" stroke-linecap="round"><line x1="48" y1="17.828571428571422" x2="24" y2="59.22857142857143"/><line x1="24" y1="59.22857142857143" x2="0" y2="17.828571428571422"/><line x1="48" y1="17.828571428571422" x2="0" y2="17.828571428571422"/><path d="M 31.451999999999998 66.68057142857143 A 7.452 7.452 0 1 0 31.451999999999998 66.68057142857143"/><line x1="18.730640266597845" y1="61.41121169516927" x2="24" y2="66.68057142857143"/><line x1="24" y1="66.68057142857143" x2="29.269359733402155" y2="61.41121169516927"/><line x1="111" y1="17.828571428571422" x2="87" y2="59.22857142857143"/><line x1="87" y1="59.22857142857143" x2="63" y2="17.828571428571422"/><line x1="111" y1="17.828571428571422" x2="63" y2="17.828571428571422"/><path d="M 94.452 66.68057142857143 A 7.452 7.452 0 1 0 94.452 66.68057142857143"/><line x1="81.73064026659785" y1="61.41121169516927" x2="87" y2="66.68057142857143"/><line x1="87" y1="66.68057142857143" x2="92.26935973340215" y2="61.41121169516927"/></g></svg>