<svg xmlns="http://www.w3.org/2000/svg" width="800" height="400" viewBox="0 0 800 400"><g stroke="black" fill="none" stroke-width="1" stroke-linecap="round"><line x1="48" y1="17.828571428571422" x2="24" y2="59.22857142857143"/><line x1="24" y1="59.22857142857143" x2="0" y2="17.828571428571422"/><line x1="48" y1="17.828571428571422" x2="0" y2="17.828571428571422"/><line x1="0" y1="59.22857142857143" x2="48" y2="59.22857142857143"/><circle cx="24" cy="22.796571428571422" r="3" fill="black" stroke="none"/><line x1="111" y1="17.828571428571422" x2="87" y2="59.22857142857143"/><line x1="87" y1="59.22857142857143" x2="63" y2="17.828571428571422"/><line x1="111" y1="17.828571428571422" x2="63" y2="17.828571428571422"/><line x1="63" y1="59.22857142857143" x2="111" y2="59.22857142857143"/><circle cx="87" cy="22.796571428571422" r="3" fill="black" stroke="none"/><line x1="126" y1="59.22857142857143" x2="150" y2="17.828571428571422"/><line x1="150" y1="17.828571428571422" x2="174" y2="59.22857142857143"/><line x1="126" y1="59.22857142857143" x2="174" y2="59.22857142857143"/><line x1="134" y1="45.42857142857143" x2="166" y2="45.42857142857143"/><line x1="150" y1="59.22857142857143" x2="150" y2="17.828571428571422"/></g></svg>