<svg xmlns="http://www.w3.org/2000/svg" width="800" height="400" viewBox="0 0 800 400"><g stroke="black" fill="none" stroke-width="1" stroke-linecap="round"><line x1="0" y1="11.228571428571428" x2="41.400000000000006" y2="35.22857142857143"/><line x1="41.400000000000006" y1="35.22857142857143" x2="0" y2="59.22857142857143"/><line x1="0" y1="11.228571428571428" x2="0" y2="59.22857142857143"/><line x1="24.840000000000003" y1="25.628571428571426" x2="24.840000000000003" y2="44.82857142857143"/><line x1="24.840000000000003" y1="25.628571428571426" x2="0" y2="44.82857142857142"/><line x1="24.840000000000003" y1="44.82857142857143" x2="0" y2="25.62857142857143"/><line x1="63" y1="11.228571428571428" x2="104.4" y2="35.22857142857143"/><line x1="104.4" y1="35.22857142857143" x2="63" y2="59.22857142857143"/><line x1="63" y1="11.228571428571428" x2="63" y2="59.22857142857143"/><line x1="87.84" y1="25.628571428571426" x2="87.84" y2="44.82857142857143"/><line x1="87.84" y1="25.628571428571426" x2="63" y2="44.82857142857142"/><line x1="87.84" y1="44.82857142857143" x2="63" y2="25.62857142857143"/><line x1="126" y1="11.228571428571428" x2="167.4" y2="35.22857142857143"/><line x1="167.4" y1="35.22857142857143" x2="126" y2="59.22857142857143"/><line x1="126" y1="11.228571428571428" x2="126" y2="59.22857142857143"/><line x1="150.84" y1="25.628571428571426" x2="150.84" y2="44.82857142857143"/><line x1="150.84" y1="25.628571428571426" x2="126" y2="44.82857142857142"/><line x1="150.84" y1="44.82857142857143" x2="126" y2="25.62857142857143"/></g></svg>